<svg width="41" height="41" viewBox="0 0 41 41" fill="none" xmlns="http://www.w3.org/2000/svg">
<rect x="0.714844" y="1" width="39" height="39" rx="19.5" stroke="#7F7E97"/>
<g clip-path="url(#clip0_6512_6999)">
<path d="M29.7001 17.7598C29.4389 17.4321 29.0471 17.2442 28.625 17.2442H24.8159L22.7503 12.5145C22.6223 12.2212 22.2807 12.0872 21.9874 12.2154C21.6941 12.3434 21.5602 12.685 21.6883 12.9783L23.5513 17.2442H16.6573L18.5203 12.9783C18.6484 12.685 18.5145 12.3435 18.2212 12.2154C17.9279 12.0872 17.5863 12.2212 17.4583 12.5145L15.3927 17.2442H11.5836C11.1615 17.2442 10.7697 17.4321 10.5085 17.7598C10.2521 18.0816 10.1575 18.4951 10.2489 18.8946L12.2831 27.7797C12.4251 28.4001 12.974 28.8334 13.6178 28.8334H26.5908C27.2346 28.8334 27.7834 28.4001 27.9255 27.7797L29.9597 18.8946C30.0511 18.4951 29.9565 18.0815 29.7001 17.7598ZM26.5908 27.6745H13.6178C13.5194 27.6745 13.4332 27.6099 13.4128 27.521L11.3786 18.636C11.3627 18.5663 11.3895 18.5138 11.4148 18.4821C11.4383 18.4526 11.4915 18.4031 11.5836 18.4031H14.8866L14.7348 18.7507C14.6068 19.044 14.7407 19.3855 15.034 19.5136C15.1094 19.5466 15.1881 19.5622 15.2655 19.5622C15.4889 19.5622 15.7018 19.4323 15.7969 19.2146L16.1512 18.4032H24.0574L24.4118 19.2146C24.5069 19.4324 24.7198 19.5622 24.9431 19.5622C25.0205 19.5622 25.0992 19.5466 25.1747 19.5136C25.468 19.3856 25.6019 19.044 25.4738 18.7507L25.3221 18.4031H28.6251C28.7172 18.4031 28.7704 18.4526 28.7939 18.4821C28.8192 18.5139 28.846 18.5663 28.83 18.636L26.7959 27.5211C26.7755 27.6099 26.6892 27.6745 26.5908 27.6745Z" fill="#7F7E97"/>
<path d="M16.6263 20.9141C16.3063 20.9141 16.0469 21.1735 16.0469 21.4935V25.7429C16.0469 26.0629 16.3063 26.3224 16.6263 26.3224C16.9464 26.3224 17.2058 26.0629 17.2058 25.7429V21.4935C17.2058 21.1735 16.9464 20.9141 16.6263 20.9141Z" fill="#7F7E97"/>
<path d="M20.1029 20.9141C19.7829 20.9141 19.5234 21.1735 19.5234 21.4935V25.7429C19.5234 26.0629 19.7829 26.3224 20.1029 26.3224C20.4229 26.3224 20.6823 26.0629 20.6823 25.7429V21.4935C20.6823 21.1735 20.4229 20.9141 20.1029 20.9141Z" fill="#7F7E97"/>
<path d="M23.5794 20.9141C23.2594 20.9141 23 21.1735 23 21.4935V25.7429C23 26.0629 23.2594 26.3224 23.5794 26.3224C23.8995 26.3224 24.1589 26.0629 24.1589 25.7429V21.4935C24.1589 21.1735 23.8995 20.9141 23.5794 20.9141Z" fill="#7F7E97"/>
</g>
<defs>
<clipPath id="clip0_6512_6999">
<rect width="20" height="18" fill="white" transform="translate(10.2148 11.5)"/>
</clipPath>
</defs>
</svg>
