<svg width="41" height="41" viewBox="0 0 41 41" fill="none" xmlns="http://www.w3.org/2000/svg">
<rect x="0.714844" y="1" width="39" height="39" rx="19.5" stroke="#7F7E97"/>
<g clip-path="url(#clip0_6512_6994)">
<path d="M19.9702 14.1113L19.0063 13.1205C16.7436 10.7946 12.5946 11.5972 11.0969 14.5214C10.3938 15.8968 10.2351 17.8825 11.5191 20.4168C12.7559 22.8569 15.3292 25.7797 19.9702 28.9634C24.6112 25.7797 27.1831 22.8569 28.4213 20.4168C29.7053 17.8812 29.548 15.8968 28.8435 14.5214C27.3458 11.5972 23.1968 10.7933 20.9341 13.1191L19.9702 14.1113ZM19.9702 30.5834C-0.644085 16.9616 13.6231 6.32972 19.7336 11.9535C19.8142 12.0275 19.8935 12.1041 19.9702 12.1834C20.046 12.1042 20.125 12.0279 20.2068 11.9549C26.3159 6.32703 40.5845 16.9602 19.9702 30.5834Z" fill="#7F7E97"/>
</g>
<defs>
<clipPath id="clip0_6512_6994">
<rect width="22" height="22" fill="white" transform="translate(9.21484 9.5)"/>
</clipPath>
</defs>
</svg>
