<svg width="35" height="38" viewBox="0 0 35 38" fill="none" xmlns="http://www.w3.org/2000/svg">
<g clip-path="url(#clip0_6512_3484)">
<g clip-path="url(#clip1_6512_3484)">
<g clip-path="url(#clip2_6512_3484)">
<mask id="mask0_6512_3484" style="mask-type:luminance" maskUnits="userSpaceOnUse" x="0" y="0" width="153" height="38">
<path d="M153 0H0V38H153V0Z" fill="white"/>
</mask>
<g mask="url(#mask0_6512_3484)">
<path d="M0 19C0 9.33502 7.83502 1.5 17.5 1.5C27.165 1.5 35 9.33502 35 19C35 28.665 27.165 36.5 17.5 36.5C7.83502 36.5 0 28.665 0 19Z" fill="#6059F7"/>
<mask id="mask1_6512_3484" style="mask-type:alpha" maskUnits="userSpaceOnUse" x="0" y="1" width="35" height="36">
<path d="M0 19C0 9.33502 7.83502 1.5 17.5 1.5C27.165 1.5 35 9.33502 35 19C35 28.665 27.165 36.5 17.5 36.5C7.83502 36.5 0 28.665 0 19Z" fill="#6059F7"/>
</mask>
<g mask="url(#mask1_6512_3484)">
<path d="M13.4169 20.8158C15.161 21.4096 17.0646 20.4527 17.6687 18.6784C18.2729 16.904 17.3488 14.9843 15.6048 14.3904C13.8607 13.7966 11.9571 14.7535 11.353 16.5278C10.7488 18.3021 11.6729 20.2219 13.4169 20.8158Z" fill="white"/>
<path d="M17.2625 11.7647L16.9395 10.7034L17.3659 11.7262L17.2625 11.7647Z" fill="white"/>
<path d="M17.4945 12.1114L17.468 11.8401L17.3141 11.6257L17.2031 11.8296L17.223 12.0782L17.2448 12.3177L17.3964 12.4587L17.5108 12.3321L17.4945 12.1114ZM17.3174 11.958C17.3103 11.9354 17.3087 11.9114 17.3127 11.8879C17.3168 11.8645 17.3264 11.8423 17.3407 11.8233C17.3668 11.8999 17.3446 12.0072 17.3174 11.958ZM17.2745 12.2444C17.2679 12.2217 17.2666 12.1978 17.2707 12.1744C17.2747 12.1511 17.284 12.1289 17.2978 12.1097C17.324 12.1863 17.3017 12.2935 17.2745 12.2444ZM17.4003 12.1228C17.3932 12.1002 17.3916 12.0762 17.3956 12.0527C17.3997 12.0293 17.4093 12.0071 17.4235 11.9881C17.447 12.0589 17.4236 12.1658 17.4003 12.1228ZM17.392 12.311C17.3849 12.2886 17.3832 12.2648 17.3872 12.2415C17.3912 12.2182 17.4007 12.1962 17.4149 12.1774C17.4411 12.254 17.4189 12.3612 17.392 12.311Z" fill="white"/>
<path d="M17.3789 10.6093C17.3789 10.6093 15.2067 10.5611 12.3493 9.05026C12.3493 9.05026 9.98237 13.2099 8.05469 14.4222C8.05469 14.4222 9.4911 13.9443 10.5462 13.9409L10.5779 13.907L10.5917 13.8875C10.6065 13.8648 10.6293 13.8363 10.659 13.798C10.7176 13.7237 10.8043 13.6191 10.9154 13.5022C10.9719 13.4408 11.032 13.3807 11.0956 13.3218C11.1629 13.2601 11.2332 13.1934 11.3098 13.1288C11.3865 13.0643 11.4667 12.9997 11.5494 12.9348C11.6321 12.8699 11.72 12.8104 11.8056 12.7476C11.8911 12.6849 11.984 12.6319 12.0709 12.5757L12.3352 12.4239L12.5886 12.2938C12.6686 12.251 12.7491 12.2204 12.8196 12.1876C12.8902 12.1548 12.96 12.1242 13.0184 12.1029L13.1726 12.0442L13.309 11.9928L13.1772 12.0518L13.0253 12.121C12.9662 12.1444 12.9038 12.1812 12.8336 12.2165C12.7633 12.2518 12.6902 12.2885 12.6092 12.3347L12.3663 12.4792L12.1168 12.636C12.0331 12.697 11.9476 12.7561 11.8653 12.8199C11.783 12.8838 11.7024 12.9494 11.6243 13.0183C11.5462 13.0872 11.4706 13.1521 11.4007 13.2214C11.3308 13.2907 11.2644 13.3563 11.2021 13.4209C11.1397 13.4855 11.0855 13.5504 11.0357 13.606C10.9345 13.7251 10.8585 13.8297 10.8063 13.9026C10.7806 13.9398 10.7614 13.9683 10.7501 13.9874L10.7302 14.0181L10.705 14.0676C10.8204 14.1802 10.9033 14.3228 10.9447 14.4801C10.9861 14.6375 10.9845 14.8037 10.9402 14.9611C10.9402 14.9611 13.1051 12.8916 16.0202 13.2701C16.0202 13.2701 15.956 11.6092 17.3789 10.6093Z" fill="white"/>
<path d="M8.63331 21.7967C8.68075 21.8841 9.19876 21.9191 9.2848 21.9351C9.85668 22.0396 10.4341 22.112 11.0146 22.1518C12.6853 22.2698 14.4184 22.1419 16.0044 21.5421C17.3832 21.0204 18.41 20.4091 19.602 19.5603C21.0807 18.5045 22.5458 16.9026 23.9433 15.8409C22.239 20.2001 19.9386 24.3 17.1102 28.0192C14.515 31.4121 11.4237 34.4681 7.80094 36.7157C6.26898 37.6724 4.64485 38.4663 2.95466 39.0846C2.95466 39.0846 8.68692 35.4013 12.6982 29.1303C12.6982 29.1303 5.64704 35.5532 2.67969 35.8724C2.67969 35.8724 6.98661 33.7127 8.64848 27.5095C8.64848 27.5095 15.1942 26.5037 17.2554 23.3219C17.2554 23.3219 14.7093 24.9933 9.85152 24.0113L8.63331 21.7967Z" fill="white"/>
<path d="M18.8711 18.0773L19.2316 16.5091L27.3549 10.7098L26.1654 10.41L28.643 9.80191L27.5739 12.1986L27.497 10.9553L20.419 18.0291L18.8711 18.0773Z" fill="white"/>
</g>
</g>
</g>
</g>
</g>
<defs>
<clipPath id="clip0_6512_3484">
<rect width="35" height="38" fill="white"/>
</clipPath>
<clipPath id="clip1_6512_3484">
<rect width="153" height="38" fill="white"/>
</clipPath>
<clipPath id="clip2_6512_3484">
<rect width="153" height="38" fill="white"/>
</clipPath>
</defs>
</svg>
