<svg width="17" height="17" viewBox="0 0 17 17" fill="none" xmlns="http://www.w3.org/2000/svg">
<g filter="url(#filter0_d_6512_6975)">
<mask id="path-1-inside-1_6512_6975" fill="white">
<path d="M9.98594 12.2778C9.61777 12.2778 9.31928 12.5763 9.31928 12.9445C9.31928 13.3126 9.61777 13.6111 9.98594 13.6111V12.2778ZM15.3193 13.6111C15.6875 13.6111 15.9859 13.3126 15.9859 12.9445C15.9859 12.5763 15.6875 12.2778 15.3193 12.2778V13.6111ZM13.3193 10.2778C13.3193 9.90961 13.0208 9.61112 12.6526 9.61112C12.2844 9.61112 11.9859 9.90961 11.9859 10.2778H13.3193ZM11.9859 15.6111C11.9859 15.9793 12.2844 16.2778 12.6526 16.2778C13.0208 16.2778 13.3193 15.9793 13.3193 15.6111H11.9859ZM9.98594 13.6111H12.6526V12.2778H9.98594V13.6111ZM15.3193 12.2778H12.6526V13.6111H15.3193V12.2778ZM13.3193 12.9445V10.2778H11.9859V12.9445H13.3193ZM11.9859 12.9445V15.6111H13.3193V12.9445H11.9859ZM1.77083 6.1889V1.92223H0.4375V6.1889H1.77083ZM1.77083 1.92223C1.77083 1.95759 1.75679 1.99151 1.73178 2.01651L0.788972 1.0737C0.563928 1.29874 0.4375 1.60397 0.4375 1.92223H1.77083ZM1.73178 2.01651C1.70678 2.04152 1.67286 2.05556 1.6375 2.05556V0.722229C1.31924 0.722229 1.01402 0.848657 0.788972 1.0737L1.73178 2.01651ZM1.6375 2.05556H5.90417V0.722229H1.6375V2.05556ZM5.90417 2.05556C5.86881 2.05556 5.8349 2.04152 5.80988 2.01651L6.75269 1.0737C6.52765 0.848657 6.22242 0.722229 5.90417 0.722229V2.05556ZM5.80988 2.01651C5.78488 1.9915 5.77083 1.95759 5.77083 1.92223H7.10417C7.10417 1.60397 6.97774 1.29875 6.75269 1.0737L5.80988 2.01651ZM5.77083 1.92223V6.1889H7.10417V1.92223H5.77083ZM5.77083 6.1889C5.77083 6.15354 5.78488 6.11962 5.80988 6.09461L6.75269 7.03742C6.97774 6.81238 7.10417 6.50715 7.10417 6.1889H5.77083ZM5.80988 6.09461C5.8349 6.06961 5.86881 6.05556 5.90417 6.05556V7.3889C6.22242 7.3889 6.52765 7.26247 6.75269 7.03742L5.80988 6.09461ZM5.90417 6.05556H1.6375V7.3889H5.90417V6.05556ZM1.6375 6.05556C1.67286 6.05556 1.70677 6.06961 1.73178 6.09461L0.788972 7.03742C1.01402 7.26247 1.31924 7.3889 1.6375 7.3889V6.05556ZM1.73178 6.09461C1.75679 6.11962 1.77083 6.15354 1.77083 6.1889H0.4375C0.4375 6.50715 0.563928 6.81238 0.788972 7.03742L1.73178 6.09461ZM1.77083 15.0778V10.8111H0.4375V15.0778H1.77083ZM1.77083 10.8111C1.77083 10.8465 1.75679 10.8804 1.73178 10.9054L0.788972 9.96258C0.563928 10.1877 0.4375 10.4929 0.4375 10.8111H1.77083ZM1.73178 10.9054C1.70677 10.9304 1.67286 10.9445 1.6375 10.9445V9.61112C1.31924 9.61112 1.01402 9.73752 0.788972 9.96258L1.73178 10.9054ZM1.6375 10.9445H5.90417V9.61112H1.6375V10.9445ZM5.90417 10.9445C5.86881 10.9445 5.8349 10.9304 5.80988 10.9054L6.75269 9.96258C6.52765 9.73752 6.22242 9.61112 5.90417 9.61112V10.9445ZM5.80988 10.9054C5.78488 10.8804 5.77083 10.8465 5.77083 10.8111H7.10417C7.10417 10.4929 6.97774 10.1877 6.75269 9.96258L5.80988 10.9054ZM5.77083 10.8111V15.0778H7.10417V10.8111H5.77083ZM5.77083 15.0778C5.77083 15.0424 5.78488 15.0085 5.80988 14.9835L6.75269 15.9263C6.97774 15.7013 7.10417 15.396 7.10417 15.0778H5.77083ZM5.80988 14.9835C5.8349 14.9585 5.86881 14.9445 5.90417 14.9445V16.2778C6.22242 16.2778 6.52765 16.1514 6.75269 15.9263L5.80988 14.9835ZM5.90417 14.9445H1.6375V16.2778H5.90417V14.9445ZM1.6375 14.9445C1.67286 14.9445 1.70677 14.9585 1.73178 14.9835L0.788972 15.9263C1.01402 16.1514 1.31924 16.2778 1.6375 16.2778V14.9445ZM1.73178 14.9835C1.75679 15.0085 1.77083 15.0424 1.77083 15.0778H0.4375C0.4375 15.396 0.563928 15.7013 0.788972 15.9263L1.73178 14.9835ZM10.6597 6.1889V1.92223H9.32639V6.1889H10.6597ZM10.6597 1.92223C10.6597 1.95759 10.6457 1.9915 10.6207 2.01651L9.67786 1.0737C9.45279 1.29875 9.32639 1.60397 9.32639 1.92223H10.6597ZM10.6207 2.01651C10.5956 2.04152 10.5618 2.05556 10.5264 2.05556V0.722229C10.2082 0.722229 9.90292 0.848657 9.67786 1.0737L10.6207 2.01651ZM10.5264 2.05556H14.7931V0.722229H10.5264V2.05556ZM14.7931 2.05556C14.7577 2.05556 14.7238 2.04152 14.6987 2.01651L15.6416 1.0737C15.4165 0.848657 15.1113 0.722229 14.7931 0.722229V2.05556ZM14.6987 2.01651C14.6738 1.9915 14.6597 1.95759 14.6597 1.92223H15.9931C15.9931 1.60397 15.8667 1.29875 15.6416 1.0737L14.6987 2.01651ZM14.6597 1.92223V6.1889H15.9931V1.92223H14.6597ZM14.6597 6.1889C14.6597 6.15354 14.6738 6.11962 14.6987 6.09461L15.6416 7.03742C15.8667 6.81238 15.9931 6.50715 15.9931 6.1889H14.6597ZM14.6987 6.09461C14.7238 6.06961 14.7577 6.05556 14.7931 6.05556V7.3889C15.1113 7.3889 15.4165 7.26247 15.6416 7.03742L14.6987 6.09461ZM14.7931 6.05556H10.5264V7.3889H14.7931V6.05556ZM10.5264 6.05556C10.5618 6.05556 10.5956 6.06961 10.6207 6.09461L9.67786 7.03742C9.90292 7.26247 10.2082 7.3889 10.5264 7.3889V6.05556ZM10.6207 6.09461C10.6457 6.11962 10.6597 6.15354 10.6597 6.1889H9.32639C9.32639 6.50715 9.45279 6.81238 9.67786 7.03742L10.6207 6.09461Z"/>
</mask>
<path d="M9.98594 12.2778C9.61777 12.2778 9.31928 12.5763 9.31928 12.9445C9.31928 13.3126 9.61777 13.6111 9.98594 13.6111V12.2778ZM15.3193 13.6111C15.6875 13.6111 15.9859 13.3126 15.9859 12.9445C15.9859 12.5763 15.6875 12.2778 15.3193 12.2778V13.6111ZM13.3193 10.2778C13.3193 9.90961 13.0208 9.61112 12.6526 9.61112C12.2844 9.61112 11.9859 9.90961 11.9859 10.2778H13.3193ZM11.9859 15.6111C11.9859 15.9793 12.2844 16.2778 12.6526 16.2778C13.0208 16.2778 13.3193 15.9793 13.3193 15.6111H11.9859ZM9.98594 13.6111H12.6526V12.2778H9.98594V13.6111ZM15.3193 12.2778H12.6526V13.6111H15.3193V12.2778ZM13.3193 12.9445V10.2778H11.9859V12.9445H13.3193ZM11.9859 12.9445V15.6111H13.3193V12.9445H11.9859ZM1.77083 6.1889V1.92223H0.4375V6.1889H1.77083ZM1.77083 1.92223C1.77083 1.95759 1.75679 1.99151 1.73178 2.01651L0.788972 1.0737C0.563928 1.29874 0.4375 1.60397 0.4375 1.92223H1.77083ZM1.73178 2.01651C1.70678 2.04152 1.67286 2.05556 1.6375 2.05556V0.722229C1.31924 0.722229 1.01402 0.848657 0.788972 1.0737L1.73178 2.01651ZM1.6375 2.05556H5.90417V0.722229H1.6375V2.05556ZM5.90417 2.05556C5.86881 2.05556 5.8349 2.04152 5.80988 2.01651L6.75269 1.0737C6.52765 0.848657 6.22242 0.722229 5.90417 0.722229V2.05556ZM5.80988 2.01651C5.78488 1.9915 5.77083 1.95759 5.77083 1.92223H7.10417C7.10417 1.60397 6.97774 1.29875 6.75269 1.0737L5.80988 2.01651ZM5.77083 1.92223V6.1889H7.10417V1.92223H5.77083ZM5.77083 6.1889C5.77083 6.15354 5.78488 6.11962 5.80988 6.09461L6.75269 7.03742C6.97774 6.81238 7.10417 6.50715 7.10417 6.1889H5.77083ZM5.80988 6.09461C5.8349 6.06961 5.86881 6.05556 5.90417 6.05556V7.3889C6.22242 7.3889 6.52765 7.26247 6.75269 7.03742L5.80988 6.09461ZM5.90417 6.05556H1.6375V7.3889H5.90417V6.05556ZM1.6375 6.05556C1.67286 6.05556 1.70677 6.06961 1.73178 6.09461L0.788972 7.03742C1.01402 7.26247 1.31924 7.3889 1.6375 7.3889V6.05556ZM1.73178 6.09461C1.75679 6.11962 1.77083 6.15354 1.77083 6.1889H0.4375C0.4375 6.50715 0.563928 6.81238 0.788972 7.03742L1.73178 6.09461ZM1.77083 15.0778V10.8111H0.4375V15.0778H1.77083ZM1.77083 10.8111C1.77083 10.8465 1.75679 10.8804 1.73178 10.9054L0.788972 9.96258C0.563928 10.1877 0.4375 10.4929 0.4375 10.8111H1.77083ZM1.73178 10.9054C1.70677 10.9304 1.67286 10.9445 1.6375 10.9445V9.61112C1.31924 9.61112 1.01402 9.73752 0.788972 9.96258L1.73178 10.9054ZM1.6375 10.9445H5.90417V9.61112H1.6375V10.9445ZM5.90417 10.9445C5.86881 10.9445 5.8349 10.9304 5.80988 10.9054L6.75269 9.96258C6.52765 9.73752 6.22242 9.61112 5.90417 9.61112V10.9445ZM5.80988 10.9054C5.78488 10.8804 5.77083 10.8465 5.77083 10.8111H7.10417C7.10417 10.4929 6.97774 10.1877 6.75269 9.96258L5.80988 10.9054ZM5.77083 10.8111V15.0778H7.10417V10.8111H5.77083ZM5.77083 15.0778C5.77083 15.0424 5.78488 15.0085 5.80988 14.9835L6.75269 15.9263C6.97774 15.7013 7.10417 15.396 7.10417 15.0778H5.77083ZM5.80988 14.9835C5.8349 14.9585 5.86881 14.9445 5.90417 14.9445V16.2778C6.22242 16.2778 6.52765 16.1514 6.75269 15.9263L5.80988 14.9835ZM5.90417 14.9445H1.6375V16.2778H5.90417V14.9445ZM1.6375 14.9445C1.67286 14.9445 1.70677 14.9585 1.73178 14.9835L0.788972 15.9263C1.01402 16.1514 1.31924 16.2778 1.6375 16.2778V14.9445ZM1.73178 14.9835C1.75679 15.0085 1.77083 15.0424 1.77083 15.0778H0.4375C0.4375 15.396 0.563928 15.7013 0.788972 15.9263L1.73178 14.9835ZM10.6597 6.1889V1.92223H9.32639V6.1889H10.6597ZM10.6597 1.92223C10.6597 1.95759 10.6457 1.9915 10.6207 2.01651L9.67786 1.0737C9.45279 1.29875 9.32639 1.60397 9.32639 1.92223H10.6597ZM10.6207 2.01651C10.5956 2.04152 10.5618 2.05556 10.5264 2.05556V0.722229C10.2082 0.722229 9.90292 0.848657 9.67786 1.0737L10.6207 2.01651ZM10.5264 2.05556H14.7931V0.722229H10.5264V2.05556ZM14.7931 2.05556C14.7577 2.05556 14.7238 2.04152 14.6987 2.01651L15.6416 1.0737C15.4165 0.848657 15.1113 0.722229 14.7931 0.722229V2.05556ZM14.6987 2.01651C14.6738 1.9915 14.6597 1.95759 14.6597 1.92223H15.9931C15.9931 1.60397 15.8667 1.29875 15.6416 1.0737L14.6987 2.01651ZM14.6597 1.92223V6.1889H15.9931V1.92223H14.6597ZM14.6597 6.1889C14.6597 6.15354 14.6738 6.11962 14.6987 6.09461L15.6416 7.03742C15.8667 6.81238 15.9931 6.50715 15.9931 6.1889H14.6597ZM14.6987 6.09461C14.7238 6.06961 14.7577 6.05556 14.7931 6.05556V7.3889C15.1113 7.3889 15.4165 7.26247 15.6416 7.03742L14.6987 6.09461ZM14.7931 6.05556H10.5264V7.3889H14.7931V6.05556ZM10.5264 6.05556C10.5618 6.05556 10.5956 6.06961 10.6207 6.09461L9.67786 7.03742C9.90292 7.26247 10.2082 7.3889 10.5264 7.3889V6.05556ZM10.6207 6.09461C10.6457 6.11962 10.6597 6.15354 10.6597 6.1889H9.32639C9.32639 6.50715 9.45279 6.81238 9.67786 7.03742L10.6207 6.09461Z" fill="#5751E1"/>
<path d="M9.98594 12.2778C9.61777 12.2778 9.31928 12.5763 9.31928 12.9445C9.31928 13.3126 9.61777 13.6111 9.98594 13.6111V12.2778ZM15.3193 13.6111C15.6875 13.6111 15.9859 13.3126 15.9859 12.9445C15.9859 12.5763 15.6875 12.2778 15.3193 12.2778V13.6111ZM13.3193 10.2778C13.3193 9.90961 13.0208 9.61112 12.6526 9.61112C12.2844 9.61112 11.9859 9.90961 11.9859 10.2778H13.3193ZM11.9859 15.6111C11.9859 15.9793 12.2844 16.2778 12.6526 16.2778C13.0208 16.2778 13.3193 15.9793 13.3193 15.6111H11.9859ZM9.98594 13.6111H12.6526V12.2778H9.98594V13.6111ZM15.3193 12.2778H12.6526V13.6111H15.3193V12.2778ZM13.3193 12.9445V10.2778H11.9859V12.9445H13.3193ZM11.9859 12.9445V15.6111H13.3193V12.9445H11.9859ZM1.77083 6.1889V1.92223H0.4375V6.1889H1.77083ZM1.77083 1.92223C1.77083 1.95759 1.75679 1.99151 1.73178 2.01651L0.788972 1.0737C0.563928 1.29874 0.4375 1.60397 0.4375 1.92223H1.77083ZM1.73178 2.01651C1.70678 2.04152 1.67286 2.05556 1.6375 2.05556V0.722229C1.31924 0.722229 1.01402 0.848657 0.788972 1.0737L1.73178 2.01651ZM1.6375 2.05556H5.90417V0.722229H1.6375V2.05556ZM5.90417 2.05556C5.86881 2.05556 5.8349 2.04152 5.80988 2.01651L6.75269 1.0737C6.52765 0.848657 6.22242 0.722229 5.90417 0.722229V2.05556ZM5.80988 2.01651C5.78488 1.9915 5.77083 1.95759 5.77083 1.92223H7.10417C7.10417 1.60397 6.97774 1.29875 6.75269 1.0737L5.80988 2.01651ZM5.77083 1.92223V6.1889H7.10417V1.92223H5.77083ZM5.77083 6.1889C5.77083 6.15354 5.78488 6.11962 5.80988 6.09461L6.75269 7.03742C6.97774 6.81238 7.10417 6.50715 7.10417 6.1889H5.77083ZM5.80988 6.09461C5.8349 6.06961 5.86881 6.05556 5.90417 6.05556V7.3889C6.22242 7.3889 6.52765 7.26247 6.75269 7.03742L5.80988 6.09461ZM5.90417 6.05556H1.6375V7.3889H5.90417V6.05556ZM1.6375 6.05556C1.67286 6.05556 1.70677 6.06961 1.73178 6.09461L0.788972 7.03742C1.01402 7.26247 1.31924 7.3889 1.6375 7.3889V6.05556ZM1.73178 6.09461C1.75679 6.11962 1.77083 6.15354 1.77083 6.1889H0.4375C0.4375 6.50715 0.563928 6.81238 0.788972 7.03742L1.73178 6.09461ZM1.77083 15.0778V10.8111H0.4375V15.0778H1.77083ZM1.77083 10.8111C1.77083 10.8465 1.75679 10.8804 1.73178 10.9054L0.788972 9.96258C0.563928 10.1877 0.4375 10.4929 0.4375 10.8111H1.77083ZM1.73178 10.9054C1.70677 10.9304 1.67286 10.9445 1.6375 10.9445V9.61112C1.31924 9.61112 1.01402 9.73752 0.788972 9.96258L1.73178 10.9054ZM1.6375 10.9445H5.90417V9.61112H1.6375V10.9445ZM5.90417 10.9445C5.86881 10.9445 5.8349 10.9304 5.80988 10.9054L6.75269 9.96258C6.52765 9.73752 6.22242 9.61112 5.90417 9.61112V10.9445ZM5.80988 10.9054C5.78488 10.8804 5.77083 10.8465 5.77083 10.8111H7.10417C7.10417 10.4929 6.97774 10.1877 6.75269 9.96258L5.80988 10.9054ZM5.77083 10.8111V15.0778H7.10417V10.8111H5.77083ZM5.77083 15.0778C5.77083 15.0424 5.78488 15.0085 5.80988 14.9835L6.75269 15.9263C6.97774 15.7013 7.10417 15.396 7.10417 15.0778H5.77083ZM5.80988 14.9835C5.8349 14.9585 5.86881 14.9445 5.90417 14.9445V16.2778C6.22242 16.2778 6.52765 16.1514 6.75269 15.9263L5.80988 14.9835ZM5.90417 14.9445H1.6375V16.2778H5.90417V14.9445ZM1.6375 14.9445C1.67286 14.9445 1.70677 14.9585 1.73178 14.9835L0.788972 15.9263C1.01402 16.1514 1.31924 16.2778 1.6375 16.2778V14.9445ZM1.73178 14.9835C1.75679 15.0085 1.77083 15.0424 1.77083 15.0778H0.4375C0.4375 15.396 0.563928 15.7013 0.788972 15.9263L1.73178 14.9835ZM10.6597 6.1889V1.92223H9.32639V6.1889H10.6597ZM10.6597 1.92223C10.6597 1.95759 10.6457 1.9915 10.6207 2.01651L9.67786 1.0737C9.45279 1.29875 9.32639 1.60397 9.32639 1.92223H10.6597ZM10.6207 2.01651C10.5956 2.04152 10.5618 2.05556 10.5264 2.05556V0.722229C10.2082 0.722229 9.90292 0.848657 9.67786 1.0737L10.6207 2.01651ZM10.5264 2.05556H14.7931V0.722229H10.5264V2.05556ZM14.7931 2.05556C14.7577 2.05556 14.7238 2.04152 14.6987 2.01651L15.6416 1.0737C15.4165 0.848657 15.1113 0.722229 14.7931 0.722229V2.05556ZM14.6987 2.01651C14.6738 1.9915 14.6597 1.95759 14.6597 1.92223H15.9931C15.9931 1.60397 15.8667 1.29875 15.6416 1.0737L14.6987 2.01651ZM14.6597 1.92223V6.1889H15.9931V1.92223H14.6597ZM14.6597 6.1889C14.6597 6.15354 14.6738 6.11962 14.6987 6.09461L15.6416 7.03742C15.8667 6.81238 15.9931 6.50715 15.9931 6.1889H14.6597ZM14.6987 6.09461C14.7238 6.06961 14.7577 6.05556 14.7931 6.05556V7.3889C15.1113 7.3889 15.4165 7.26247 15.6416 7.03742L14.6987 6.09461ZM14.7931 6.05556H10.5264V7.3889H14.7931V6.05556ZM10.5264 6.05556C10.5618 6.05556 10.5956 6.06961 10.6207 6.09461L9.67786 7.03742C9.90292 7.26247 10.2082 7.3889 10.5264 7.3889V6.05556ZM10.6207 6.09461C10.6457 6.11962 10.6597 6.15354 10.6597 6.1889H9.32639C9.32639 6.50715 9.45279 6.81238 9.67786 7.03742L10.6207 6.09461Z" fill="black" fill-opacity="0.2"/>
<path d="M9.98594 12.2778C9.61777 12.2778 9.31928 12.5763 9.31928 12.9445C9.31928 13.3126 9.61777 13.6111 9.98594 13.6111V12.2778ZM15.3193 13.6111C15.6875 13.6111 15.9859 13.3126 15.9859 12.9445C15.9859 12.5763 15.6875 12.2778 15.3193 12.2778V13.6111ZM13.3193 10.2778C13.3193 9.90961 13.0208 9.61112 12.6526 9.61112C12.2844 9.61112 11.9859 9.90961 11.9859 10.2778H13.3193ZM11.9859 15.6111C11.9859 15.9793 12.2844 16.2778 12.6526 16.2778C13.0208 16.2778 13.3193 15.9793 13.3193 15.6111H11.9859ZM9.98594 13.6111H12.6526V12.2778H9.98594V13.6111ZM15.3193 12.2778H12.6526V13.6111H15.3193V12.2778ZM13.3193 12.9445V10.2778H11.9859V12.9445H13.3193ZM11.9859 12.9445V15.6111H13.3193V12.9445H11.9859ZM1.77083 6.1889V1.92223H0.4375V6.1889H1.77083ZM1.77083 1.92223C1.77083 1.95759 1.75679 1.99151 1.73178 2.01651L0.788972 1.0737C0.563928 1.29874 0.4375 1.60397 0.4375 1.92223H1.77083ZM1.73178 2.01651C1.70678 2.04152 1.67286 2.05556 1.6375 2.05556V0.722229C1.31924 0.722229 1.01402 0.848657 0.788972 1.0737L1.73178 2.01651ZM1.6375 2.05556H5.90417V0.722229H1.6375V2.05556ZM5.90417 2.05556C5.86881 2.05556 5.8349 2.04152 5.80988 2.01651L6.75269 1.0737C6.52765 0.848657 6.22242 0.722229 5.90417 0.722229V2.05556ZM5.80988 2.01651C5.78488 1.9915 5.77083 1.95759 5.77083 1.92223H7.10417C7.10417 1.60397 6.97774 1.29875 6.75269 1.0737L5.80988 2.01651ZM5.77083 1.92223V6.1889H7.10417V1.92223H5.77083ZM5.77083 6.1889C5.77083 6.15354 5.78488 6.11962 5.80988 6.09461L6.75269 7.03742C6.97774 6.81238 7.10417 6.50715 7.10417 6.1889H5.77083ZM5.80988 6.09461C5.8349 6.06961 5.86881 6.05556 5.90417 6.05556V7.3889C6.22242 7.3889 6.52765 7.26247 6.75269 7.03742L5.80988 6.09461ZM5.90417 6.05556H1.6375V7.3889H5.90417V6.05556ZM1.6375 6.05556C1.67286 6.05556 1.70677 6.06961 1.73178 6.09461L0.788972 7.03742C1.01402 7.26247 1.31924 7.3889 1.6375 7.3889V6.05556ZM1.73178 6.09461C1.75679 6.11962 1.77083 6.15354 1.77083 6.1889H0.4375C0.4375 6.50715 0.563928 6.81238 0.788972 7.03742L1.73178 6.09461ZM1.77083 15.0778V10.8111H0.4375V15.0778H1.77083ZM1.77083 10.8111C1.77083 10.8465 1.75679 10.8804 1.73178 10.9054L0.788972 9.96258C0.563928 10.1877 0.4375 10.4929 0.4375 10.8111H1.77083ZM1.73178 10.9054C1.70677 10.9304 1.67286 10.9445 1.6375 10.9445V9.61112C1.31924 9.61112 1.01402 9.73752 0.788972 9.96258L1.73178 10.9054ZM1.6375 10.9445H5.90417V9.61112H1.6375V10.9445ZM5.90417 10.9445C5.86881 10.9445 5.8349 10.9304 5.80988 10.9054L6.75269 9.96258C6.52765 9.73752 6.22242 9.61112 5.90417 9.61112V10.9445ZM5.80988 10.9054C5.78488 10.8804 5.77083 10.8465 5.77083 10.8111H7.10417C7.10417 10.4929 6.97774 10.1877 6.75269 9.96258L5.80988 10.9054ZM5.77083 10.8111V15.0778H7.10417V10.8111H5.77083ZM5.77083 15.0778C5.77083 15.0424 5.78488 15.0085 5.80988 14.9835L6.75269 15.9263C6.97774 15.7013 7.10417 15.396 7.10417 15.0778H5.77083ZM5.80988 14.9835C5.8349 14.9585 5.86881 14.9445 5.90417 14.9445V16.2778C6.22242 16.2778 6.52765 16.1514 6.75269 15.9263L5.80988 14.9835ZM5.90417 14.9445H1.6375V16.2778H5.90417V14.9445ZM1.6375 14.9445C1.67286 14.9445 1.70677 14.9585 1.73178 14.9835L0.788972 15.9263C1.01402 16.1514 1.31924 16.2778 1.6375 16.2778V14.9445ZM1.73178 14.9835C1.75679 15.0085 1.77083 15.0424 1.77083 15.0778H0.4375C0.4375 15.396 0.563928 15.7013 0.788972 15.9263L1.73178 14.9835ZM10.6597 6.1889V1.92223H9.32639V6.1889H10.6597ZM10.6597 1.92223C10.6597 1.95759 10.6457 1.9915 10.6207 2.01651L9.67786 1.0737C9.45279 1.29875 9.32639 1.60397 9.32639 1.92223H10.6597ZM10.6207 2.01651C10.5956 2.04152 10.5618 2.05556 10.5264 2.05556V0.722229C10.2082 0.722229 9.90292 0.848657 9.67786 1.0737L10.6207 2.01651ZM10.5264 2.05556H14.7931V0.722229H10.5264V2.05556ZM14.7931 2.05556C14.7577 2.05556 14.7238 2.04152 14.6987 2.01651L15.6416 1.0737C15.4165 0.848657 15.1113 0.722229 14.7931 0.722229V2.05556ZM14.6987 2.01651C14.6738 1.9915 14.6597 1.95759 14.6597 1.92223H15.9931C15.9931 1.60397 15.8667 1.29875 15.6416 1.0737L14.6987 2.01651ZM14.6597 1.92223V6.1889H15.9931V1.92223H14.6597ZM14.6597 6.1889C14.6597 6.15354 14.6738 6.11962 14.6987 6.09461L15.6416 7.03742C15.8667 6.81238 15.9931 6.50715 15.9931 6.1889H14.6597ZM14.6987 6.09461C14.7238 6.06961 14.7577 6.05556 14.7931 6.05556V7.3889C15.1113 7.3889 15.4165 7.26247 15.6416 7.03742L14.6987 6.09461ZM14.7931 6.05556H10.5264V7.3889H14.7931V6.05556ZM10.5264 6.05556C10.5618 6.05556 10.5956 6.06961 10.6207 6.09461L9.67786 7.03742C9.90292 7.26247 10.2082 7.3889 10.5264 7.3889V6.05556ZM10.6207 6.09461C10.6457 6.11962 10.6597 6.15354 10.6597 6.1889H9.32639C9.32639 6.50715 9.45279 6.81238 9.67786 7.03742L10.6207 6.09461Z" fill="black" fill-opacity="0.2"/>
<path d="M10.4859 13.6111V12.2778H9.48594V13.6111H10.4859ZM14.8193 12.2778V13.6111H15.8193V12.2778H14.8193ZM11.9859 10.7778H13.3193V9.77778H11.9859V10.7778ZM13.3193 15.1111H11.9859V16.1111H13.3193V15.1111ZM1.10417 6.6889H1.77083V5.6889H1.10417V6.6889ZM1.10417 2.42223H1.77083V1.42223H1.10417V2.42223ZM5.40417 1.3889V2.05556H6.40417V1.3889H5.40417ZM6.4375 1.42223H5.77083V2.42223H6.4375V1.42223ZM6.40417 6.72223V6.05556H5.40417V6.72223H6.40417ZM1.10417 15.5778H1.77083V14.5778H1.10417V15.5778ZM1.10417 11.3111H1.77083V10.3111H1.10417V11.3111ZM5.40417 10.2778V10.9445H6.40417V10.2778H5.40417ZM6.4375 10.3111H5.77083V11.3111H6.4375V10.3111ZM5.40417 15.6111V16.2778H6.40417V15.6111H5.40417ZM1.1375 15.6111V16.2778H2.1375V15.6111H1.1375ZM9.99306 6.6889H10.6597V5.6889H9.99306V6.6889ZM9.99306 2.42223H10.6597V1.42223H9.99306V2.42223ZM11.0264 1.3889V0.722229H10.0264V1.3889H11.0264ZM14.2931 1.3889V2.05556H15.2931V1.3889H14.2931ZM15.3264 2.42223H15.9931V1.42223H15.3264V2.42223ZM15.3264 6.6889H15.9931V5.6889H15.3264V6.6889ZM15.2931 6.72223V6.05556H14.2931V6.72223H15.2931ZM13.1526 13.6111V12.2778H12.1526V13.6111H13.1526ZM11.9859 13.4445H13.3193V12.4445H11.9859V13.4445ZM1.77083 1.42223H0.4375V2.42223H1.77083V1.42223ZM0.4375 6.6889H1.77083V5.6889H0.4375V6.6889ZM2.08534 1.66296L1.14253 0.720148L0.435419 1.42725L1.37823 2.37007L2.08534 1.66296ZM2.1375 2.05556V0.722229H1.1375V2.05556H2.1375ZM6.40417 2.05556V0.722229H5.40417V2.05556H6.40417ZM6.16344 2.37007L7.10625 1.42725L6.39914 0.720148L5.45633 1.66296L6.16344 2.37007ZM5.77083 2.42223H7.10417V1.42223H5.77083V2.42223ZM5.77083 6.6889H7.10417V5.6889H5.77083V6.6889ZM5.45633 6.44816L6.39914 7.39097L7.10624 6.68387L6.16344 5.74106L5.45633 6.44816ZM5.40417 6.05556V7.3889H6.40417V6.05556H5.40417ZM1.1375 6.05556V7.3889H2.1375V6.05556H1.1375ZM1.37823 5.74106L0.435419 6.68387L1.14252 7.39097L2.08534 6.44817L1.37823 5.74106ZM1.77083 10.3111H0.4375V11.3111H1.77083V10.3111ZM0.4375 15.5778H1.77083V14.5778H0.4375V15.5778ZM2.08534 10.5519L1.14253 9.60904L0.435413 10.3161L1.37822 11.259L2.08534 10.5519ZM2.1375 10.9445V9.61112H1.1375V10.9445H2.1375ZM6.40417 10.9445V9.61112H5.40417V10.9445H6.40417ZM6.16344 11.259L7.10625 10.3161L6.39913 9.60904L5.45632 10.5519L6.16344 11.259ZM5.77083 11.3111H7.10417V10.3111H5.77083V11.3111ZM5.77083 15.5778H7.10417V14.5778H5.77083V15.5778ZM5.45632 15.337L6.39913 16.2799L7.10625 15.5728L6.16344 14.6299L5.45632 15.337ZM5.40417 14.9445V16.2778H6.40417V14.9445H5.40417ZM1.1375 14.9445V16.2778H2.1375V14.9445H1.1375ZM1.37822 14.6299L0.435412 15.5728L1.14253 16.2799L2.08534 15.337L1.37822 14.6299ZM10.6597 1.42223H9.32639V2.42223H10.6597V1.42223ZM9.32639 6.6889H10.6597V5.6889H9.32639V6.6889ZM10.9742 1.66295L10.0314 0.720142L9.32431 1.42726L10.2672 2.37007L10.9742 1.66295ZM11.0264 2.05556V0.722229H10.0264V2.05556H11.0264ZM15.2931 2.05556V0.722229H14.2931V2.05556H15.2931ZM15.0523 2.37007L15.9951 1.42726L15.288 0.720141L14.3452 1.66295L15.0523 2.37007ZM14.6597 2.42223H15.9931V1.42223H14.6597V2.42223ZM14.6597 6.6889H15.9931V5.6889H14.6597V6.6889ZM14.3452 6.44817L15.288 7.39098L15.9951 6.68386L15.0523 5.74105L14.3452 6.44817ZM14.2931 6.05556V7.3889H15.2931V6.05556H14.2931ZM10.0264 6.05556V7.3889H11.0264V6.05556H10.0264ZM10.2672 5.74105L9.32431 6.68386L10.0314 7.39098L10.9742 6.44817L10.2672 5.74105ZM5.80988 2.01651L5.10265 2.72349L5.1029 2.72375L5.80988 2.01651ZM6.75269 1.0737L6.04558 1.7808L6.04559 1.78081L6.75269 1.0737ZM5.80988 6.09461L5.1029 5.38738L5.10265 5.38763L5.80988 6.09461ZM6.75269 7.03742L6.0456 6.3303L6.04557 6.33033L6.75269 7.03742ZM1.73178 6.09461L2.43902 5.38763L2.43877 5.38738L1.73178 6.09461ZM0.788972 7.03742L1.49609 6.33032L1.49607 6.33031L0.788972 7.03742ZM1.73178 10.9054L2.43839 11.613L2.43977 11.6117L1.73178 10.9054ZM5.80988 10.9054L5.1019 11.6117L5.10328 11.613L5.80988 10.9054ZM6.75269 9.96258L6.04554 10.6696L6.04556 10.6697L6.75269 9.96258ZM5.80988 14.9835L5.10328 14.2759L5.1019 14.2772L5.80988 14.9835ZM6.75269 15.9263L6.04556 15.2192L6.04554 15.2193L6.75269 15.9263ZM1.73178 14.9835L2.43977 14.2772L2.43839 14.2759L1.73178 14.9835ZM10.6207 2.01651L11.3269 2.7245L11.3283 2.72312L10.6207 2.01651ZM14.6987 2.01651L13.9911 2.72312L13.9925 2.7245L14.6987 2.01651ZM14.6987 6.09461L13.9925 5.38663L13.9911 5.38801L14.6987 6.09461ZM15.6416 7.03742L14.9345 6.33027L14.9345 6.33029L15.6416 7.03742ZM10.6207 6.09461L11.3283 5.38801L11.3269 5.38663L10.6207 6.09461ZM9.67786 7.03742L10.3849 6.33029L10.3849 6.33027L9.67786 7.03742ZM9.98594 11.2778C9.06548 11.2778 8.31928 12.024 8.31928 12.9445H10.3193C10.3193 13.1286 10.1701 13.2778 9.98594 13.2778V11.2778ZM8.31928 12.9445C8.31928 13.8649 9.06548 14.6111 9.98594 14.6111V12.6111C10.1701 12.6111 10.3193 12.7603 10.3193 12.9445H8.31928ZM15.3193 14.6111C16.2397 14.6111 16.9859 13.8649 16.9859 12.9445H14.9859C14.9859 12.7603 15.1352 12.6111 15.3193 12.6111V14.6111ZM16.9859 12.9445C16.9859 12.024 16.2397 11.2778 15.3193 11.2778V13.2778C15.1352 13.2778 14.9859 13.1286 14.9859 12.9445H16.9859ZM14.3193 10.2778C14.3193 9.35732 13.5731 8.61112 12.6526 8.61112V10.6111C12.4685 10.6111 12.3193 10.4619 12.3193 10.2778H14.3193ZM12.6526 8.61112C11.7321 8.61112 10.9859 9.35732 10.9859 10.2778H12.9859C12.9859 10.4619 12.8367 10.6111 12.6526 10.6111V8.61112ZM10.9859 15.6111C10.9859 16.5316 11.7321 17.2778 12.6526 17.2778V15.2778C12.8367 15.2778 12.9859 15.427 12.9859 15.6111H10.9859ZM12.6526 17.2778C13.5731 17.2778 14.3193 16.5316 14.3193 15.6111H12.3193C12.3193 15.427 12.4685 15.2778 12.6526 15.2778V17.2778ZM9.98594 14.6111H12.6526V12.6111H9.98594V14.6111ZM12.6526 11.2778H9.98594V13.2778H12.6526V11.2778ZM15.3193 11.2778H12.6526V13.2778H15.3193V11.2778ZM12.6526 14.6111H15.3193V12.6111H12.6526V14.6111ZM14.3193 12.9445V10.2778H12.3193V12.9445H14.3193ZM10.9859 10.2778V12.9445H12.9859V10.2778H10.9859ZM10.9859 12.9445V15.6111H12.9859V12.9445H10.9859ZM14.3193 15.6111V12.9445H12.3193V15.6111H14.3193ZM2.77083 6.1889V1.92223H0.770833V6.1889H2.77083ZM-0.5625 1.92223V6.1889H1.4375V1.92223H-0.5625ZM0.770833 1.92223C0.770833 1.69247 0.862074 1.47201 1.02468 1.30941L2.43889 2.72362C2.6515 2.51101 2.77083 2.2227 2.77083 1.92223H0.770833ZM0.0818652 0.366594C-0.330715 0.779174 -0.5625 1.33876 -0.5625 1.92223H1.4375C1.4375 1.86919 1.45857 1.81831 1.49608 1.78081L0.0818652 0.366594ZM1.02468 1.30941C1.18728 1.1468 1.40774 1.05556 1.6375 1.05556V3.05556C1.93798 3.05556 2.22628 2.93623 2.43889 2.72362L1.02468 1.30941ZM1.6375 -0.277771C1.05403 -0.277771 0.494445 -0.045986 0.0818652 0.366594L1.49608 1.78081C1.53359 1.7433 1.58446 1.72223 1.6375 1.72223V-0.277771ZM1.6375 3.05556H5.90417V1.05556H1.6375V3.05556ZM5.90417 -0.277771H1.6375V1.72223H5.90417V-0.277771ZM5.90417 1.05556C6.13402 1.05556 6.35439 1.14687 6.51686 1.30928L5.1029 2.72375C5.3154 2.93617 5.60359 3.05556 5.90417 3.05556V1.05556ZM7.4598 0.366601C7.04722 -0.0459886 6.48764 -0.277771 5.90417 -0.277771V1.72223C5.95721 1.72223 6.00808 1.7433 6.04558 1.7808L7.4598 0.366601ZM6.51711 1.30953C6.67953 1.472 6.77083 1.69237 6.77083 1.92223H4.77083C4.77083 2.22281 4.89023 2.511 5.10265 2.72349L6.51711 1.30953ZM8.10417 1.92223C8.10417 1.33876 7.87238 0.779172 7.45979 0.366587L6.04559 1.78081C6.0831 1.81832 6.10417 1.86919 6.10417 1.92223H8.10417ZM4.77083 1.92223V6.1889H6.77083V1.92223H4.77083ZM8.10417 6.1889V1.92223H6.10417V6.1889H8.10417ZM6.77083 6.1889C6.77083 6.41875 6.67953 6.63912 6.51711 6.80159L5.10265 5.38763C4.89023 5.60013 4.77083 5.88832 4.77083 6.1889H6.77083ZM7.45978 7.74454C7.87239 7.33196 8.10417 6.77237 8.10417 6.1889H6.10417C6.10417 6.24194 6.08309 6.2928 6.0456 6.3303L7.45978 7.74454ZM6.51686 6.80184C6.35439 6.96426 6.13402 7.05556 5.90417 7.05556V5.05556C5.60359 5.05556 5.3154 5.17496 5.1029 5.38738L6.51686 6.80184ZM5.90417 8.3889C6.48764 8.3889 7.04723 8.15711 7.45981 7.74451L6.04557 6.33033C6.00808 6.36782 5.95721 6.3889 5.90417 6.3889V8.3889ZM5.90417 5.05556H1.6375V7.05556H5.90417V5.05556ZM1.6375 8.3889H5.90417V6.3889H1.6375V8.3889ZM1.6375 7.05556C1.40764 7.05556 1.18727 6.96425 1.0248 6.80184L2.43877 5.38738C2.22627 5.17496 1.93808 5.05556 1.6375 5.05556V7.05556ZM0.0818582 7.74452C0.494443 8.15711 1.05403 8.3889 1.6375 8.3889V6.3889C1.58446 6.3889 1.53359 6.36782 1.49609 6.33032L0.0818582 7.74452ZM1.02455 6.80159C0.86214 6.63912 0.770833 6.41875 0.770833 6.1889H2.77083C2.77083 5.88832 2.65144 5.60013 2.43902 5.38763L1.02455 6.80159ZM-0.5625 6.1889C-0.5625 6.77237 -0.330718 7.33195 0.0818722 7.74453L1.49607 6.33031C1.45857 6.29281 1.4375 6.24194 1.4375 6.1889H-0.5625ZM2.77083 15.0778V10.8111H0.770833V15.0778H2.77083ZM-0.5625 10.8111V15.0778H1.4375V10.8111H-0.5625ZM0.770833 10.8111C0.770833 10.5808 0.862441 10.361 1.0238 10.1992L2.43977 11.6117C2.65114 11.3998 2.77083 11.1122 2.77083 10.8111H0.770833ZM0.0818303 9.25551C-0.330712 9.6681 -0.5625 10.2277 -0.5625 10.8111H1.4375C1.4375 10.7581 1.45857 10.7072 1.49611 10.6697L0.0818303 9.25551ZM1.02518 10.1978C1.18753 10.0357 1.40771 9.94445 1.6375 9.94445V11.9445C1.93801 11.9445 2.22601 11.8251 2.43839 11.613L1.02518 10.1978ZM1.6375 8.61112C1.05408 8.61112 0.494465 8.84284 0.0818303 9.25551L1.49611 10.6697C1.53357 10.6322 1.5844 10.6111 1.6375 10.6111V8.61112ZM1.6375 11.9445H5.90417V9.94445H1.6375V11.9445ZM5.90417 8.61112H1.6375V10.6111H5.90417V8.61112ZM5.90417 9.94445C6.13396 9.94445 6.35413 10.0357 6.51649 10.1978L5.10328 11.613C5.31566 11.8251 5.60366 11.9445 5.90417 11.9445V9.94445ZM7.45984 9.25552C7.04721 8.84284 6.48758 8.61112 5.90417 8.61112V10.6111C5.95726 10.6111 6.0081 10.6322 6.04554 10.6696L7.45984 9.25552ZM6.51787 10.1992C6.67923 10.361 6.77083 10.5808 6.77083 10.8111H4.77083C4.77083 11.1122 4.89053 11.3998 5.1019 11.6117L6.51787 10.1992ZM8.10417 10.8111C8.10417 10.2277 7.87238 9.66809 7.45983 9.25551L6.04556 10.6697C6.0831 10.7072 6.10417 10.7581 6.10417 10.8111H8.10417ZM4.77083 10.8111V15.0778H6.77083V10.8111H4.77083ZM8.10417 15.0778V10.8111H6.10417V15.0778H8.10417ZM6.77083 15.0778C6.77083 15.3081 6.67923 15.5279 6.51787 15.6897L5.1019 14.2772C4.89053 14.4891 4.77083 14.7767 4.77083 15.0778H6.77083ZM7.45983 16.6334C7.87238 16.2208 8.10417 15.6612 8.10417 15.0778H6.10417C6.10417 15.1308 6.0831 15.1817 6.04556 15.2192L7.45983 16.6334ZM6.51649 15.6911C6.35413 15.8532 6.13396 15.9445 5.90417 15.9445V13.9445C5.60366 13.9445 5.31566 14.0638 5.10328 14.2759L6.51649 15.6911ZM5.90417 17.2778C6.48758 17.2778 7.0472 17.0461 7.45984 16.6334L6.04554 15.2193C6.0081 15.2567 5.95727 15.2778 5.90417 15.2778V17.2778ZM5.90417 13.9445H1.6375V15.9445H5.90417V13.9445ZM1.6375 17.2778H5.90417V15.2778H1.6375V17.2778ZM1.6375 15.9445C1.40771 15.9445 1.18753 15.8532 1.02518 15.6911L2.43839 14.2759C2.22601 14.0638 1.93801 13.9445 1.6375 13.9445V15.9445ZM0.0818303 16.6334C0.494466 17.0461 1.05408 17.2778 1.6375 17.2778V15.2778C1.5844 15.2778 1.53357 15.2567 1.49611 15.2192L0.0818303 16.6334ZM1.0238 15.6897C0.862441 15.5279 0.770833 15.3081 0.770833 15.0778H2.77083C2.77083 14.7767 2.65114 14.4891 2.43977 14.2772L1.0238 15.6897ZM-0.5625 15.0778C-0.5625 15.6612 -0.330713 16.2208 0.0818303 16.6334L1.49611 15.2192C1.45857 15.1817 1.4375 15.1308 1.4375 15.0778H-0.5625ZM11.6597 6.1889V1.92223H9.65972V6.1889H11.6597ZM8.32639 1.92223V6.1889H10.3264V1.92223H8.32639ZM9.65972 1.92223C9.65972 1.69244 9.75097 1.47226 9.91309 1.30991L11.3283 2.72312C11.5404 2.51074 11.6597 2.22274 11.6597 1.92223H9.65972ZM8.97078 0.366559C8.55811 0.779194 8.32639 1.33881 8.32639 1.92223H10.3264C10.3264 1.86913 10.3475 1.8183 10.3849 1.78084L8.97078 0.366559ZM9.91447 1.30853C10.0762 1.14717 10.2961 1.05556 10.5264 1.05556V3.05556C10.8275 3.05556 11.115 2.93587 11.3269 2.7245L9.91447 1.30853ZM10.5264 -0.277771C9.94294 -0.277771 9.38337 -0.0459833 8.97078 0.366559L10.3849 1.78084C10.4225 1.7433 10.4734 1.72223 10.5264 1.72223V-0.277771ZM10.5264 3.05556H14.7931V1.05556H10.5264V3.05556ZM14.7931 -0.277771H10.5264V1.72223H14.7931V-0.277771ZM14.7931 1.05556C15.0234 1.05556 15.2432 1.14717 15.405 1.30853L13.9925 2.7245C14.2044 2.93587 14.492 3.05556 14.7931 3.05556V1.05556ZM16.3487 0.366559C15.9361 -0.0459838 15.3765 -0.277771 14.7931 -0.277771V1.72223C14.8461 1.72223 14.897 1.7433 14.9345 1.78084L16.3487 0.366559ZM15.4064 1.30991C15.5685 1.47226 15.6597 1.69244 15.6597 1.92223H13.6597C13.6597 2.22274 13.7791 2.51074 13.9911 2.72312L15.4064 1.30991ZM16.9931 1.92223C16.9931 1.33881 16.7613 0.779195 16.3487 0.366559L14.9345 1.78084C14.972 1.8183 14.9931 1.86913 14.9931 1.92223H16.9931ZM13.6597 1.92223V6.1889H15.6597V1.92223H13.6597ZM16.9931 6.1889V1.92223H14.9931V6.1889H16.9931ZM15.6597 6.1889C15.6597 6.41869 15.5685 6.63886 15.4064 6.80122L13.9911 5.38801C13.7791 5.60039 13.6597 5.88838 13.6597 6.1889H15.6597ZM16.3487 7.74457C16.7613 7.33193 16.9931 6.77231 16.9931 6.1889H14.9931C14.9931 6.242 14.972 6.29283 14.9345 6.33027L16.3487 7.74457ZM15.405 6.8026C15.2432 6.96395 15.0234 7.05556 14.7931 7.05556V5.05556C14.492 5.05556 14.2044 5.17526 13.9925 5.38663L15.405 6.8026ZM14.7931 8.3889C15.3765 8.3889 15.9361 8.15711 16.3487 7.74455L14.9345 6.33029C14.897 6.36783 14.8461 6.3889 14.7931 6.3889V8.3889ZM14.7931 5.05556H10.5264V7.05556H14.7931V5.05556ZM10.5264 8.3889H14.7931V6.3889H10.5264V8.3889ZM10.5264 7.05556C10.2961 7.05556 10.0762 6.96395 9.91447 6.8026L11.3269 5.38663C11.115 5.17526 10.8275 5.05556 10.5264 5.05556V7.05556ZM8.97078 7.74455C9.38336 8.15711 9.94294 8.3889 10.5264 8.3889V6.3889C10.4734 6.3889 10.4225 6.36783 10.3849 6.33029L8.97078 7.74455ZM9.91309 6.80122C9.75097 6.63886 9.65972 6.41869 9.65972 6.1889H11.6597C11.6597 5.88838 11.5404 5.60039 11.3283 5.38801L9.91309 6.80122ZM8.32639 6.1889C8.32639 6.77231 8.55811 7.33193 8.97079 7.74457L10.3849 6.33027C10.3475 6.29283 10.3264 6.24199 10.3264 6.1889H8.32639Z" fill="black" mask="url(#path-1-inside-1_6512_6975)"/>
</g>
<defs>
<filter id="filter0_d_6512_6975" x="-3.5625" y="0.722229" width="23.5547" height="23.5555" filterUnits="userSpaceOnUse" color-interpolation-filters="sRGB">
<feFlood flood-opacity="0" result="BackgroundImageFix"/>
<feColorMatrix in="SourceAlpha" type="matrix" values="0 0 0 0 0 0 0 0 0 0 0 0 0 0 0 0 0 0 127 0" result="hardAlpha"/>
<feOffset dy="4"/>
<feGaussianBlur stdDeviation="2"/>
<feComposite in2="hardAlpha" operator="out"/>
<feColorMatrix type="matrix" values="0 0 0 0 0 0 0 0 0 0 0 0 0 0 0 0 0 0 0.25 0"/>
<feBlend mode="normal" in2="BackgroundImageFix" result="effect1_dropShadow_6512_6975"/>
<feBlend mode="normal" in="SourceGraphic" in2="effect1_dropShadow_6512_6975" result="shape"/>
</filter>
</defs>
</svg>
