<svg width="25" height="25" viewBox="0 0 25 25" fill="none" xmlns="http://www.w3.org/2000/svg">
<g clip-path="url(#clip0_6512_7079)">
<g clip-path="url(#clip1_6512_7079)">
<path fill-rule="evenodd" clip-rule="evenodd" d="M20.6053 12.4932C20.6053 11.8905 20.5512 11.311 20.4508 10.7546H12.4453V14.0425H17.0199C16.8228 15.1051 16.2239 16.0053 15.3237 16.608V18.7407H18.0708C19.678 17.261 20.6053 15.0819 20.6053 12.4932Z" fill="#4285F4"/>
<path fill-rule="evenodd" clip-rule="evenodd" d="M12.4475 20.8C14.7425 20.8 16.6666 20.0389 18.073 18.7407L15.3259 16.6079C14.5648 17.1179 13.5912 17.4193 12.4475 17.4193C10.2336 17.4193 8.35974 15.9241 7.69133 13.915H4.85156V16.1173C6.2502 18.8952 9.12475 20.8 12.4475 20.8Z" fill="#34A853"/>
<path fill-rule="evenodd" clip-rule="evenodd" d="M7.68918 13.9151C7.51918 13.4051 7.42259 12.8604 7.42259 12.3001C7.42259 11.7399 7.51918 11.1952 7.68918 10.6852V8.48291H4.8494C4.27372 9.63041 3.94531 10.9285 3.94531 12.3001C3.94531 13.6718 4.27372 14.9699 4.8494 16.1174L7.68918 13.9151Z" fill="#FBBC05"/>
<path fill-rule="evenodd" clip-rule="evenodd" d="M12.4475 7.18074C13.6955 7.18074 14.8159 7.6096 15.6968 8.45188L18.1348 6.01392C16.6628 4.64232 14.7387 3.80005 12.4475 3.80005C9.12474 3.80005 6.2502 5.70483 4.85156 8.48278L7.69133 10.685C8.35974 8.67597 10.2336 7.18074 12.4475 7.18074Z" fill="#EA4335"/>
</g>
</g>
<defs>
<clipPath id="clip0_6512_7079">
<rect width="24" height="24" fill="white" transform="translate(0.445312 0.300049)"/>
</clipPath>
<clipPath id="clip1_6512_7079">
<rect width="24" height="24" fill="white" transform="translate(0.445312 0.300049)"/>
</clipPath>
</defs>
</svg>
