<svg width="45" height="45" viewBox="0 0 45 45" fill="none" xmlns="http://www.w3.org/2000/svg">
<rect x="0.214844" y="0.5" width="44" height="44" rx="22" fill="#5751E1"/>
<g clip-path="url(#clip0_6512_6991)">
<path d="M34.9365 32.3533L30.4111 32.1933C31.1653 32.16 31.7624 32.1233 32.2024 32.0833C32.6424 32.0433 32.8624 32.0011 32.8624 31.9567C32.8624 31.8922 32.391 31.8322 31.4482 31.7767C30.5053 31.7211 29.2483 31.6767 27.6769 31.6433C26.1056 31.61 24.3928 31.5933 22.5386 31.5933C20.6844 31.5933 18.9716 31.61 17.4003 31.6433C15.8289 31.6767 14.5719 31.7211 13.6291 31.7767C12.6862 31.8322 12.2148 31.8928 12.2148 31.9583C12.2148 32.0239 12.6862 32.0845 13.6291 32.14C14.5719 32.1956 15.8289 32.24 17.4003 32.2733C18.9716 32.3067 20.7001 32.3233 22.5857 32.3233C23.78 32.3233 24.9428 32.3156 26.0741 32.3C27.2055 32.2845 28.2426 32.2633 29.1854 32.2367L33.7109 32.3967C33.8995 32.4033 34.1037 32.4067 34.3237 32.4067C34.5437 32.4067 34.748 32.4033 34.9365 32.3967C35.1251 32.39 35.2194 32.3828 35.2194 32.375C35.2194 32.3672 35.1251 32.36 34.9365 32.3533ZM22.5857 32.26C21.0144 32.26 19.5688 32.2467 18.2488 32.22C16.9289 32.1933 15.8918 32.1567 15.1376 32.11C14.3833 32.0633 14.0062 32.0128 14.0062 31.9583C14.0062 31.9039 14.3833 31.8533 15.1376 31.8067C15.8918 31.76 16.9289 31.7233 18.2488 31.6967C19.5688 31.67 20.9987 31.6567 22.5386 31.6567C24.0785 31.6567 25.5085 31.67 26.8284 31.6967C28.1483 31.7233 29.1854 31.76 29.9397 31.8067C30.6939 31.8533 31.071 31.9039 31.071 31.9583C31.071 32.0128 30.6939 32.0633 29.9397 32.11C29.1854 32.1567 28.1483 32.1933 26.8284 32.22C25.5085 32.2467 24.0942 32.26 22.5857 32.26Z" fill="white"/>
</g>
<defs>
<clipPath id="clip0_6512_6991">
<rect width="28.2843" height="1" fill="white" transform="matrix(1 0 0 -1 12.2148 32.5)"/>
</clipPath>
</defs>
</svg>
